HIERARCHY
ROOT hip
{
  OFFSET 11.2552 75.2139 -293.28
  CHANNELS 6 Xposition Yposition Zposition Zrotation Xrotation Yrotation
  JOINT abdomen
  {
    OFFSET 0 20.6881 -0.73152
    CHANNELS 3 Zrotation Xrotation Yrotation
    JOINT chest
    {
      OFFSET 0 11.7043 -0.48768
      CHANNELS 3 Zrotation Xrotation Yrotation
      JOINT neck
      {
        OFFSET 0 22.1894 -2.19456
        CHANNELS 3 Zrotation Xrotation Yrotation
        JOINT head
        {
          OFFSET -0.24384 7.07133 1.2192
          CHANNELS 3 Zrotation Xrotation Yrotation
          JOINT leftEye
          {
            OFFSET 4.14528 8.04674 8.04672
            CHANNELS 3 Zrotation Xrotation Yrotation
            End Site
            {
              OFFSET 1 0 0
            }
          }
          JOINT rightEye
          {
            OFFSET -3.6576 8.04674 8.04672
            CHANNELS 3 Zrotation Xrotation Yrotation
            End Site
            {
              OFFSET 1 0 0
            }
          }
        }
      }
      JOINT rCollar
      {
        OFFSET -2.68224 19.2634 -4.8768
        CHANNELS 3 Zrotation Xrotation Yrotation
        JOINT rShldr
        {
          OFFSET -8.77824 -1.95073 1.46304
          CHANNELS 3 Zrotation Xrotation Yrotation
          JOINT rForeArm
          {
            OFFSET -28.1742 -1.7115 0.48768
            CHANNELS 3 Zrotation Xrotation Yrotation
            JOINT rHand
            {
              OFFSET -22.5879 0.773209 7.07136
              CHANNELS 3 Zrotation Xrotation Yrotation
              JOINT rThumb1
              {
                OFFSET -1.2192 -0.487915 3.41376
                CHANNELS 3 Zrotation Xrotation Yrotation
                JOINT rThumb2
                {
                  OFFSET -3.37035 -0.52449 3.41376
                  CHANNELS 3 Zrotation Xrotation Yrotation
                  End Site
                  {
                    OFFSET -1.78271 -1.18214 1.43049
                  }
                }
              }
              JOINT rIndex1
              {
                OFFSET -7.75947 0.938293 5.60832
                CHANNELS 3 Zrotation Xrotation Yrotation
                JOINT rIndex2
                {
                  OFFSET -2.54057 -0.884171 1.56538
                  CHANNELS 3 Zrotation Xrotation Yrotation
                  End Site
                  {
                    OFFSET -1.62519 -0.234802 1.16502
                  }
                }
              }
              JOINT rMid1
              {
                OFFSET -8.24714 1.18213 3.41376
                CHANNELS 3 Zrotation Xrotation Yrotation
                JOINT rMid2
                {
                  OFFSET -3.10165 -0.590103 1.0647
                  CHANNELS 3 Zrotation Xrotation Yrotation
                  End Site
                  {
                    OFFSET -2.48547 -0.328903 0.83742
                  }
                }
              }
              JOINT rRing1
              {
                OFFSET -8.82822 0.546677 1.51678
                CHANNELS 3 Zrotation Xrotation Yrotation
                JOINT rRing2
                {
                  OFFSET -2.60934 -0.819778 -0.0198488
                  CHANNELS 3 Zrotation Xrotation Yrotation
                  End Site
                  {
                    OFFSET -2.33842 -0.294052 0.168128
                  }
                }
              }
              JOINT rPinky1
              {
                OFFSET -8.27202 -0.0477905 -0.4584
                CHANNELS 3 Zrotation Xrotation Yrotation
                JOINT rPinky2
                {
                  OFFSET -1.82734 -0.647385 -0.700984
                  CHANNELS 3 Zrotation Xrotation Yrotation
                  End Site
                  {
                    OFFSET -1.69225 -0.51767 -0.607171
                  }
                }
              }
            }
          }
        }
      }
      JOINT lCollar
      {
        OFFSET 2.68224 19.2634 -4.8768
        CHANNELS 3 Zrotation Xrotation Yrotation
        JOINT lShldr
        {
          OFFSET 8.77824 -1.95073 1.46304
          CHANNELS 3 Zrotation Xrotation Yrotation
          JOINT lForeArm
          {
            OFFSET 28.1742 -1.7115 0.48768
            CHANNELS 3 Zrotation Xrotation Yrotation
            JOINT lHand
            {
              OFFSET 22.5879 0.773209 7.07136
              CHANNELS 3 Zrotation Xrotation Yrotation
              JOINT lThumb1
              {
                OFFSET 1.2192 -0.487915 3.41376
                CHANNELS 3 Zrotation Xrotation Yrotation
                JOINT lThumb2
                {
                  OFFSET 3.37035 -0.52449 3.41376
                  CHANNELS 3 Zrotation Xrotation Yrotation
                  End Site
                  {
                    OFFSET 1.78271 -1.18214 1.43049
                  }
                }
              }
              JOINT lIndex1
              {
                OFFSET 7.75947 0.938293 5.60832
                CHANNELS 3 Zrotation Xrotation Yrotation
                JOINT lIndex2
                {
                  OFFSET 2.54057 -0.884171 1.56538
                  CHANNELS 3 Zrotation Xrotation Yrotation
                  End Site
                  {
                    OFFSET 1.62519 -0.234802 1.16502
                  }
                }
              }
              JOINT lMid1
              {
                OFFSET 8.24714 1.18213 3.41376
                CHANNELS 3 Zrotation Xrotation Yrotation
                JOINT lMid2
                {
                  OFFSET 3.10165 -0.590103 1.0647
                  CHANNELS 3 Zrotation Xrotation Yrotation
                  End Site
                  {
                    OFFSET 2.48547 -0.328903 0.83742
                  }
                }
              }
              JOINT lRing1
              {
                OFFSET 8.82822 0.546677 1.51678
                CHANNELS 3 Zrotation Xrotation Yrotation
                JOINT lRing2
                {
                  OFFSET 2.60934 -0.819778 -0.0198488
                  CHANNELS 3 Zrotation Xrotation Yrotation
                  End Site
                  {
                    OFFSET 2.33842 -0.294052 0.168128
                  }
                }
              }
              JOINT lPinky1
              {
                OFFSET 8.27202 -0.0477905 -0.4584
                CHANNELS 3 Zrotation Xrotation Yrotation
                JOINT lPinky2
                {
                  OFFSET 1.82734 -0.647385 -0.700984
                  CHANNELS 3 Zrotation Xrotation Yrotation
                  End Site
                  {
                    OFFSET 1.69225 -0.51767 -0.607171
                  }
                }
              }
            }
          }
        }
      }
    }
  }
  JOINT rButtock
  {
    OFFSET -8.77824 4.35084 1.2192
    CHANNELS 3 Zrotation Xrotation Yrotation
    JOINT rThigh
    {
      OFFSET 0 -1.70687 -2.19456
      CHANNELS 3 Zrotation Xrotation Yrotation
      JOINT rShin
      {
        OFFSET 0 -36.8199 0.73152
        CHANNELS 3 Zrotation Xrotation Yrotation
        JOINT rFoot
        {
          OFFSET 0.73152 -45.1104 -5.12064
          CHANNELS 3 Zrotation Xrotation Yrotation
          End Site
          {
            OFFSET -1.1221 -3.69964 12.103
          }
        }
      }
    }
  }
  JOINT lButtock
  {
    OFFSET 8.77824 4.35084 1.2192
    CHANNELS 3 Zrotation Xrotation Yrotation
    JOINT lThigh
    {
      OFFSET 0 -1.70687 -2.19456
      CHANNELS 3 Zrotation Xrotation Yrotation
      JOINT lShin
      {
        OFFSET 0 -36.8199 0.73152
        CHANNELS 3 Zrotation Xrotation Yrotation
        JOINT lFoot
        {
          OFFSET -0.73152 -45.1104 -5.12064
          CHANNELS 3 Zrotation Xrotation Yrotation
          End Site
          {
            OFFSET 1.1221 -3.69964 12.103
          }
        }
      }
    }
  }
}
MOTION
Frames:	6
Frame Time:	0.00833333
-3.60482 93.7046 -7.76376 -3.29244 -14.3973 177.549 6.24926 10.3318 1.57702 2.44303 -8.86019 0.763201 -3.14565 -2.21021 -2.82791 -1.44172 -19.3024 -5.14582 -0 0 0 -0 0 0 -9.92415e-014 -5.08823e-014 -2.5345e-014 85.9511 32.9755 -10.7433 -27.955 -40.6455 85.0863 -0.0371558 -5.49344 -0.774451 -3.03463e-010 4.79799e-010 1.26768e-009 -5.31234e-010 8.78727e-010 2.19449e-009 -3.03456e-010 4.79825e-010 1.26766e-009 7.73091 5.47488 0.417314 -3.03462e-010 4.7982e-010 1.26768e-009 2.90554 0.965183 0.102902 -3.03456e-010 4.79799e-010 1.26769e-009 10.2786 0.731801 0.0259123 -3.03465e-010 4.79809e-010 1.26769e-009 2.22167 -0.733487 -0.20892 -9.91521e-014 -5.08947e-014 -2.55438e-014 -99.8825 47.3653 30.7042 -28.4166 -34.6887 74.831 0.126546 -10.0912 1.43322 1.83715e-010 -1.17979e-009 -9.41877e-010 3.24889e-010 -2.02497e-009 -1.62806e-009 1.83705e-010 -1.17979e-009 -9.41861e-010 -7.73091 5.47488 -0.417314 1.83717e-010 -1.17979e-009 -9.41874e-010 -2.90554 0.965183 -0.102902 1.8371e-010 -1.17979e-009 -9.41878e-010 -10.2786 0.731801 -0.0259123 1.8372e-010 -1.17979e-009 -9.41889e-010 -2.22167 -0.733487 0.20892 -2.03217e-016 0 -3.88251e-019 7.79573 -24.2957 -5.29729 -0.503694 49.2993 1.24707 -5.57222 -19.492 -12.66 2.03217e-016 0 3.88251e-019 11.4035 -55.1984 7.19584 170.094 82.8358 -170.24 -0.397427 -7.44 -5.34027 
-3.30924 93.7379 -10.5369 -3.76676 -14.3045 177.389 6.63023 9.83932 2.22337 2.18669 -8.82313 0.91955 -3.36832 -2.2632 -3.10498 -1.14826 -18.9212 -5.59248 -0 0 0 -0 0 0 -1.11052e-013 -2.0345e-013 -5.15443e-015 85.516 33.8302 -10.4165 -27.8079 -41.3538 86.3616 -0.0408219 -5.76864 -0.813489 1.93453e-011 3.9942e-008 -7.28524e-010 3.5576e-011 6.90062e-008 -1.25471e-009 1.93515e-011 3.9942e-008 -7.28533e-010 7.73091 5.47488 0.417314 1.93467e-011 3.9942e-008 -7.28524e-010 2.90554 0.965183 0.102902 1.93528e-011 3.9942e-008 -7.28514e-010 10.2786 0.731801 0.0259123 1.93439e-011 3.9942e-008 -7.28513e-010 2.22167 -0.733487 -0.20892 -1.1099e-013 -2.03462e-013 -5.34544e-015 -100.682 47.524 32.719 -28.4319 -35.1303 75.5422 0.132482 -10.3294 1.46776 2.60973e-010 7.99101e-010 6.81154e-010 4.42401e-010 1.36549e-009 1.17962e-009 2.60964e-010 7.99105e-010 6.81169e-010 -7.73091 5.47488 -0.417314 2.60975e-010 7.99103e-010 6.81156e-010 -2.90554 0.965183 -0.102902 2.60967e-010 7.99104e-010 6.81152e-010 -10.2786 0.731801 -0.0259123 2.60979e-010 7.99106e-010 6.81142e-010 -2.22167 -0.733487 0.20892 -2.03217e-016 0 -3.88251e-019 8.38635 -21.28 -5.45892 -0.445991 47.6788 1.21918 -5.08522 -19.1864 -11.6769 2.03217e-016 0 3.88251e-019 12.2155 -57.2763 7.8431 168.795 83.7423 -168.921 -0.400686 -7.27209 -5.43129 
-3.02136 93.7889 -13.3633 -4.24592 -14.1794 177.228 7.04137 9.35403 2.8755 1.90636 -8.78482 1.07579 -3.6014 -2.28412 -3.40054 -0.829433 -18.5567 -6.02542 -0 0 0 -0 0 0 -1.16679e-013 -4.58194e-013 3.58309e-014 85.1153 34.7164 -10.1961 -27.629 -42.0866 87.7078 -0.0455049 -6.09443 -0.859763 6.6159e-010 9.79313e-008 -4.40059e-009 1.16148e-009 1.69104e-007 -7.59982e-009 6.61595e-010 9.79313e-008 -4.4006e-009 7.73091 5.47488 0.417314 6.61593e-010 9.79313e-008 -4.40059e-009 2.90554 0.965183 0.102902 6.61599e-010 9.79313e-008 -4.40058e-009 10.2786 0.731801 0.0259123 6.6159e-010 9.79313e-008 -4.40058e-009 2.22167 -0.733487 -0.20892 -1.16689e-013 -4.58203e-013 3.5657e-014 -101.541 47.6703 34.8203 -28.4381 -35.6137 76.3386 0.140509 -10.6365 1.5124 3.02521e-010 4.53461e-009 3.72026e-009 4.85394e-010 7.76733e-009 6.4357e-009 3.02513e-010 4.53461e-009 3.72028e-009 -7.73091 5.47488 -0.417314 3.02523e-010 4.53461e-009 3.72026e-009 -2.90554 0.965183 -0.102902 3.02513e-010 4.53461e-009 3.72026e-009 -10.2786 0.731801 -0.0259123 3.02528e-010 4.53461e-009 3.72025e-009 -2.22167 -0.733487 0.20892 -2.03217e-016 0 -3.88251e-019 8.9716 -18.1463 -5.62646 -0.387721 45.8875 1.1871 -4.46916 -18.6548 -10.4128 2.03217e-016 0 3.88251e-019 12.8328 -59.1023 8.32691 166.044 85.0608 -166.153 -0.387822 -7.05004 -5.48525 
-2.74131 93.8553 -16.2467 -4.71439 -14.0376 177.066 7.45283 8.85372 3.51137 1.62301 -8.73477 1.22555 -3.8332 -2.27908 -3.69387 -0.504415 -18.2036 -6.43839 -0 0 0 -0 0 0 -1.20519e-013 -6.97334e-013 7.58348e-014 84.7338 35.6261 -10.0383 -27.4225 -42.7979 89.0651 -0.0500948 -6.38541 -0.901161 1.29393e-009 1.5042e-007 -7.9844e-009 2.26972e-009 2.59701e-007 -1.37925e-008 1.29393e-009 1.5042e-007 -7.9844e-009 7.73091 5.47488 0.417314 1.29393e-009 1.5042e-007 -7.98441e-009 2.90554 0.965183 0.102902 1.29394e-009 1.5042e-007 -7.9844e-009 10.2786 0.731801 0.0259123 1.29393e-009 1.5042e-007 -7.9844e-009 2.22167 -0.733487 -0.20892 -1.20604e-013 -6.9734e-013 7.56779e-014 -102.443 47.737 36.9583 -28.4329 -36.0992 77.1597 0.148982 -10.9436 1.55716 3.13804e-010 8.18121e-009 6.70763e-009 4.76822e-010 1.40167e-008 1.1602e-008 3.13798e-010 8.18122e-009 6.70765e-009 -7.73091 5.47488 -0.417314 3.13807e-010 8.18122e-009 6.70763e-009 -2.90554 0.965183 -0.102902 3.13796e-010 8.18122e-009 6.70763e-009 -10.2786 0.731801 -0.0259123 3.13814e-010 8.18122e-009 6.70762e-009 -2.22167 -0.733487 0.20892 -2.03217e-016 0 -3.88251e-019 9.55174 -14.9367 -5.75635 -0.330904 43.9329 1.15842 -3.78158 -17.8008 -8.9741 2.03217e-016 0 3.88251e-019 13.2834 -60.6658 8.67001 159.458 86.6932 -159.555 -0.361163 -6.72738 -5.52391 
-2.4662 93.9288 -19.1813 -5.15686 -13.8947 176.906 7.83493 8.31636 4.10893 1.35751 -8.66252 1.36246 -4.05218 -2.2542 -3.96427 -0.192352 -17.8568 -6.82514 -0 0 0 -0 0 0 -1.26963e-013 -8.03089e-013 9.30809e-014 84.353 36.5512 -9.89749 -27.2024 -43.4486 90.3588 -0.0530097 -6.55618 -0.925494 1.58701e-009 1.73381e-007 -9.71583e-009 2.78357e-009 2.99326e-007 -1.67845e-008 1.58701e-009 1.73381e-007 -9.71582e-009 7.73091 5.47488 0.417314 1.58701e-009 1.73381e-007 -9.71583e-009 2.90554 0.965183 0.102902 1.58702e-009 1.73381e-007 -9.71582e-009 10.2786 0.731801 0.0259123 1.58701e-009 1.73381e-007 -9.71582e-009 2.22167 -0.733487 -0.20892 -1.27092e-013 -8.03092e-013 9.29318e-014 -103.358 47.6631 39.0718 -28.419 -36.5522 77.9376 0.155845 -11.1817 1.59195 3.0027e-010 9.8934e-009 8.17544e-009 4.39637e-010 1.69496e-008 1.41404e-008 3.00265e-010 9.8934e-009 8.17545e-009 -7.73091 5.47488 -0.417314 3.00271e-010 9.8934e-009 8.17544e-009 -2.90554 0.965183 -0.102902 3.00262e-010 9.8934e-009 8.17544e-009 -10.2786 0.731801 -0.0259123 3.0028e-010 9.8934e-009 8.17543e-009 -2.22167 -0.733487 0.20892 -2.03217e-016 0 -3.88251e-019 10.1162 -11.6923 -5.80695 -0.27615 41.8227 1.13975 -3.08887 -16.5309 -7.47045 2.03217e-016 0 3.88251e-019 13.6085 -61.9544 8.90544 134.919 88.411 -135.015 -0.322596 -6.25763 -5.56916 
-2.19493 94.0046 -22.1636 -5.57711 -13.7392 176.744 8.19496 7.74905 4.6635 1.10822 -8.56315 1.48461 -4.26 -2.20047 -4.20859 0.109642 -17.5309 -7.18397 -0 0 0 -0 0 0 -1.40978e-013 -6.98282e-013 7.33395e-014 83.9638 37.4974 -9.76633 -26.9826 -44.049 91.56 -0.0532795 -6.56703 -0.927049 1.33938e-009 1.50558e-007 -8.57751e-009 2.35036e-009 2.59916e-007 -1.48178e-008 1.33938e-009 1.50558e-007 -8.57751e-009 7.73091 5.47488 0.417314 1.33938e-009 1.50558e-007 -8.57752e-009 2.90554 0.965183 0.102902 1.33939e-009 1.50558e-007 -8.57751e-009 10.2786 0.731801 0.0259123 1.33938e-009 1.50558e-007 -8.57751e-009 2.22167 -0.733487 -0.20892 -1.41098e-013 -6.98281e-013 7.31838e-014 -104.262 47.4268 41.1332 -28.4012 -36.9695 78.6501 0.15978 -11.3155 1.61153 2.44914e-010 8.6315e-009 7.32398e-009 3.51996e-010 1.47835e-008 1.26679e-008 2.44909e-010 8.6315e-009 7.32399e-009 -7.73091 5.47488 -0.417314 2.44912e-010 8.6315e-009 7.32397e-009 -2.90554 0.965183 -0.102902 2.44906e-010 8.6315e-009 7.32397e-009 -10.2786 0.731801 -0.0259123 2.44923e-010 8.6315e-009 7.32397e-009 -2.22167 -0.733487 0.20892 -2.03217e-016 0 -3.88251e-019 10.6344 -8.38571 -5.79401 -0.220571 39.5443 1.1345 -2.40001 -14.8442 -5.782 2.03217e-016 0 3.88251e-019 13.7598 -62.938 8.98575 43.196 88.4179 -43.2984 -0.266343 -5.65481 -5.59394 
